<svg width="24" height="24" viewBox="0 0 24 24" fill="none" xmlns="http://www.w3.org/2000/svg">
<path d="M14.7808 19.7005L14.3873 19.3919L14.7808 19.7005ZM9.21921 19.7005L8.82576 20.009L9.21921 19.7005ZM12 22.0055V21.5055V22.0055ZM19.5 9.6087C19.5 10.9042 18.8311 12.5939 17.8214 14.3791C16.8226 16.1448 15.5347 17.9288 14.3873 19.3919L15.1742 20.009C16.3366 18.5267 17.6583 16.6985 18.6918 14.8714C19.7141 13.0639 20.5 11.1804 20.5 9.6087H19.5ZM9.61266 19.3919C8.4653 17.9288 7.17736 16.1448 6.17865 14.3791C5.16887 12.5939 4.5 10.9042 4.5 9.6087H3.5C3.5 11.1804 4.28586 13.0639 5.30824 14.8714C6.34169 16.6985 7.66336 18.5267 8.82576 20.009L9.61266 19.3919ZM4.5 9.6087C4.5 5.09522 7.89176 1.5 12 1.5V0.5C7.27168 0.5 3.5 4.61326 3.5 9.6087H4.5ZM12 1.5C16.1082 1.5 19.5 5.09522 19.5 9.6087H20.5C20.5 4.61326 16.7283 0.5 12 0.5V1.5ZM14.3873 19.3919C13.7739 20.1742 13.3515 20.7101 12.9673 21.0591C12.6044 21.3887 12.325 21.5055 12 21.5055V22.5055C12.6482 22.5055 13.1567 22.238 13.6397 21.7993C14.1012 21.3801 14.5827 20.7634 15.1742 20.009L14.3873 19.3919ZM8.82576 20.009C9.41732 20.7634 9.89878 21.3801 10.3603 21.7993C10.8433 22.238 11.3518 22.5055 12 22.5055V21.5055C11.675 21.5055 11.3956 21.3887 11.0327 21.0591C10.6485 20.7101 10.2261 20.1743 9.61266 19.3919L8.82576 20.009ZM8.5 10C8.5 11.933 10.067 13.5 12 13.5V12.5C10.6193 12.5 9.5 11.3807 9.5 10H8.5ZM12 13.5C13.933 13.5 15.5 11.933 15.5 10H14.5C14.5 11.3807 13.3807 12.5 12 12.5V13.5ZM15.5 10C15.5 8.067 13.933 6.5 12 6.5V7.5C13.3807 7.5 14.5 8.61929 14.5 10H15.5ZM12 6.5C10.067 6.5 8.5 8.067 8.5 10H9.5C9.5 8.61929 10.6193 7.5 12 7.5V6.5Z" fill="white"/>
</svg>
