<svg width="230" height="202" viewBox="0 0 230 202" fill="none" xmlns="http://www.w3.org/2000/svg">
<path d="M-1.36039e-06 169.985L17.9684 138.863L53.9051 138.863L71.8735 169.985L53.9051 201.107L17.9684 201.107L-1.36039e-06 169.985Z" fill="#0B32A9"/>
<path d="M-1.36039e-06 100.554L17.9684 69.4315L53.9051 69.4315L71.8735 100.554L53.9051 131.676L17.9684 131.676L-1.36039e-06 100.554Z" fill="#0B32A9"/>
<path d="M-1.36039e-06 31.1225L17.9684 0.000350167L53.9051 0.000348596L71.8735 31.1225L53.9051 62.2446L17.9684 62.2446L-1.36039e-06 31.1225Z" fill="#0B32A9"/>
<path d="M79.0632 169.985L97.0316 138.863L132.968 138.863L150.937 169.985L132.968 201.107L97.0316 201.107L79.0632 169.985Z" fill="#0B32A9"/>
<path d="M79.0632 100.554L97.0316 69.4315L132.968 69.4315L150.937 100.554L132.968 131.676L97.0316 131.676L79.0632 100.554Z" fill="#0B32A9"/>
<path d="M79.0633 31.1225L97.0316 0.000350167L132.968 0.000348596L150.937 31.1225L132.968 62.2446L97.0316 62.2446L79.0633 31.1225Z" fill="#0B32A9"/>
<path d="M158.126 169.985L176.095 138.863L212.032 138.863L230 169.985L212.032 201.107L176.095 201.107L158.126 169.985Z" fill="#0B32A9"/>
<path d="M158.126 100.554L176.095 69.4315L212.032 69.4315L230 100.554L212.032 131.676L176.095 131.676L158.126 100.554Z" fill="#0B32A9"/>
<path d="M158.127 31.1225L176.095 0.000350167L212.032 0.000348596L230 31.1225L212.032 62.2446L176.095 62.2446L158.127 31.1225Z" fill="#0B32A9"/>
</svg>
