<svg width="216" height="189" viewBox="0 0 216 189" fill="none" xmlns="http://www.w3.org/2000/svg">
<path d="M-1.27719e-06 159.589L16.8694 130.37L50.6082 130.37L67.4777 159.589L50.6082 188.808L16.8694 188.808L-1.27719e-06 159.589Z" fill="#00188F"/>
<path d="M-1.27719e-06 94.4038L16.8694 65.1851L50.6082 65.1851L67.4777 94.4038L50.6082 123.622L16.8694 123.622L-1.27719e-06 94.4038Z" fill="#00188F"/>
<path d="M-0.000123348 29.2186L16.8693 -0.000107549L50.6081 -0.000109024L67.4775 29.2186L50.6081 58.4373L16.8693 58.4373L-0.000123348 29.2186Z" fill="#00188F"/>
<path d="M74.2277 159.589L91.0971 130.37L124.836 130.37L141.705 159.589L124.836 188.808L91.0971 188.808L74.2277 159.589Z" fill="#00188F"/>
<path d="M74.2277 94.4038L91.0971 65.1851L124.836 65.1851L141.705 94.4038L124.836 123.622L91.0971 123.622L74.2277 94.4038Z" fill="#00188F"/>
<path d="M74.2275 29.2186L91.0969 -0.000107549L124.836 -0.000109024L141.705 29.2186L124.836 58.4373L91.097 58.4373L74.2275 29.2186Z" fill="#00188F"/>
<path d="M148.455 159.589L165.325 130.37L199.064 130.37L215.933 159.589L199.064 188.808L165.325 188.808L148.455 159.589Z" fill="#00188F"/>
<path d="M148.455 94.4038L165.325 65.1851L199.064 65.1851L215.933 94.4038L199.064 123.622L165.325 123.622L148.455 94.4038Z" fill="#00188F"/>
<path d="M148.455 29.2186L165.325 -0.000107549L199.063 -0.000109024L215.933 29.2186L199.063 58.4373L165.325 58.4373L148.455 29.2186Z" fill="#00188F"/>
</svg>
