<svg width="24" height="24" viewBox="0 0 24 24" fill="none" xmlns="http://www.w3.org/2000/svg">
<path d="M19.3536 17.6465C19.1584 17.4513 18.8418 17.4513 18.6465 17.6465C18.4513 17.8418 18.4512 18.1584 18.6465 18.3536L19.3536 17.6465ZM22.6464 22.3536C22.8417 22.5489 23.1582 22.5489 23.3535 22.3536C23.5488 22.1583 23.5488 21.8418 23.3535 21.6465L22.6464 22.3536ZM18.6465 18.3536L22.6464 22.3536L23.3535 21.6465L19.3536 17.6465L18.6465 18.3536ZM11 18.5C6.30558 18.5 2.5 14.6944 2.5 10H1.5C1.5 15.2467 5.7533 19.5 11 19.5V18.5ZM19.5 10C19.5 14.6944 15.6944 18.5 11 18.5V19.5C16.2467 19.5 20.5 15.2467 20.5 10H19.5ZM11 1.5C15.6944 1.5 19.5 5.30558 19.5 10H20.5C20.5 4.7533 16.2467 0.5 11 0.5V1.5ZM11 0.5C5.7533 0.5 1.5 4.7533 1.5 10H2.5C2.5 5.30558 6.30558 1.5 11 1.5V0.5Z" fill="white"/>
</svg>
