<svg width="210" height="64" viewBox="0 0 210 64" fill="none" xmlns="http://www.w3.org/2000/svg">
<mask id="mask0_4010_803" style="mask-type:alpha" maskUnits="userSpaceOnUse" x="0" y="0" width="58" height="64">
<path fill-rule="evenodd" clip-rule="evenodd" d="M28.871 0.5L57.7422 15.1332V48.9465L28.871 63.5L0 48.9465V15.1332L28.871 0.5Z" fill="#2D2985"/>
</mask>
<g mask="url(#mask0_4010_803)">
<path fill-rule="evenodd" clip-rule="evenodd" d="M28.8876 1.70264L25.4746 19.3519C26.7806 19.539 28.1168 19.6357 29.4709 19.6357C30.4867 19.6357 31.4928 19.5811 32.484 19.4747L28.8876 1.70264ZM25.2075 20.7333L23.7536 28.2513C25.4644 28.4849 27.21 28.6056 28.9772 28.6056C30.7646 28.6056 32.5297 28.4823 34.2585 28.2435L32.764 20.8587C31.6808 20.9803 30.581 21.0426 29.4709 21.0426C28.0271 21.0426 26.6016 20.9372 25.2075 20.7333ZM49.6397 10.0211C49.8608 9.70239 50.2996 9.62241 50.6197 9.84247C50.9399 10.0625 51.0202 10.4993 50.7992 10.818C50.6622 11.0145 50.5216 11.2086 50.3776 11.4003L49.1021 10.7539C49.2873 10.5137 49.4666 10.2694 49.6397 10.0211ZM30.2184 1.18275L49.1021 10.7539C47.0732 13.385 44.3287 15.5277 41.1463 17.0491C38.9099 18.1183 36.4567 18.8803 33.8824 19.289L30.2184 1.18275ZM27.5542 1.16737L24.0833 19.1161C21.7301 18.6552 19.4926 17.8971 17.4461 16.8789C14.2339 15.2806 11.4907 13.0436 9.50909 10.3135L27.5542 1.16737ZM27.5542 1.16737L28.1781 -2.05894L28.8711 -1.92699L29.5613 -2.06445L30.2184 1.18275L28.8711 0.499893L27.5542 1.16737ZM57.2882 14.9029C54.5772 18.7766 50.8528 21.9798 46.4881 24.3131C43.1878 26.0774 39.5217 27.3433 35.6502 28.025L34.1614 20.6675C36.8468 20.234 39.4104 19.4335 41.7537 18.3133C45.2166 16.6578 48.1968 14.3029 50.3776 11.4003L57.2882 14.9029ZM57.7423 16.6664V15.1331L57.2882 14.9029C57.7683 14.2168 58.2167 13.5097 58.6312 12.7827C58.8233 12.4458 59.2535 12.3277 59.592 12.5189C59.9304 12.7101 60.0491 13.1383 59.8569 13.4753C59.2244 14.5847 58.5173 15.6496 57.7423 16.6664ZM57.7423 25.9089C54.3192 29.5332 50.2321 32.4127 45.7442 34.4291C43.1097 35.6128 40.3368 36.4981 37.479 37.0616L35.9292 29.4036C39.9359 28.6935 43.7335 27.3795 47.1562 25.5498C51.3475 23.3092 54.9771 20.2941 57.7423 16.6664V25.9089ZM57.7423 27.9159V25.9089C58.0353 25.5987 58.3234 25.283 58.6065 24.9619C58.8627 24.6705 59.3076 24.6409 59.6003 24.8959C59.8931 25.1509 59.9228 25.5939 59.6666 25.8853C59.0477 26.5873 58.4057 27.2644 57.7423 27.9159ZM41.5371 57.1152L37.7579 38.44C40.7187 37.8552 43.5925 36.9369 46.324 35.7097C50.536 33.8173 54.4096 31.189 57.7423 27.9159V48.9464L41.5371 57.1152ZM40.234 57.7721L41.5371 57.1152L42.2461 60.6189L40.8657 60.8938L40.234 57.7721ZM17.9973 58.0185L21.8049 38.3288C24.4895 38.8983 27.2526 39.1935 30.0539 39.1935C32.1855 39.1935 34.2978 39.0224 36.3722 38.6885L40.234 57.7721L28.8711 63.4999L17.9973 58.0185ZM16.6881 57.3586L17.9973 58.0185L17.4424 60.8883L16.0566 60.6244L16.6881 57.3586ZM0.000113487 25.3781C3.34295 29.3049 7.41066 32.4982 11.9374 34.8214C14.6253 36.2007 17.4745 37.2735 20.4295 38.0111L16.6881 57.3586L0.000113487 48.9464V25.3781ZM0.000113487 25.3781C-0.731965 24.5181 -1.42928 23.623 -2.08903 22.6941C-2.31317 22.3769 -2.23656 21.9389 -1.91783 21.7157C-1.5992 21.4926 -1.15917 21.5689 -0.935024 21.8862C-0.631468 22.3135 -0.319657 22.7335 0.000113487 23.1459V25.3781ZM0.000113487 16.3856C2.84736 20.2145 6.64774 23.3751 11.0535 25.6848C14.4297 27.4547 18.1615 28.7256 22.0917 29.4151L20.6968 36.629C17.8732 35.9188 15.1514 34.8915 12.5834 33.5737C7.72096 31.0782 3.40836 27.5416 0.000113487 23.1459V16.3856ZM0.611489 14.8232L0.000113487 15.1331V16.3856C-0.586313 15.5969 -1.13231 14.78 -1.63483 13.9362C-1.83306 13.6023 -1.72181 13.1716 -1.38641 12.9743C-1.05098 12.7771 -0.618277 12.8878 -0.420174 13.2217C-0.09518 13.7674 0.24901 14.3014 0.611489 14.8232ZM8.24068 10.9564C10.3673 13.9536 13.3358 16.4001 16.8167 18.1321C18.9791 19.208 21.3389 20.0089 23.8167 20.4953L22.3588 28.0344C18.5638 27.3719 14.9637 26.1481 11.7106 24.4427C7.21354 22.0851 3.37932 18.808 0.611489 14.8232L8.24068 10.9564ZM8.24068 10.9564C8.06223 10.7049 7.8897 10.4495 7.7233 10.1903C7.51439 9.86406 7.61077 9.43097 7.93858 9.22301C8.26637 9.01514 8.7015 9.11108 8.91042 9.43737C9.10135 9.73474 9.30102 10.0268 9.50909 10.3135L8.24068 10.9564ZM23.4862 29.6341L22.0719 36.9481C24.6684 37.5001 27.3423 37.7865 30.0539 37.7865C32.0915 37.7865 34.1103 37.6246 36.093 37.3087L34.5379 29.6243C32.7176 29.8803 30.8591 30.0125 28.9772 30.0125C27.1197 30.0125 25.2846 29.8837 23.4862 29.6341ZM11.4547 49.0162C11.4317 49.0572 11.4001 49.0858 11.3601 49.102C11.322 49.1192 11.2677 49.1197 11.1959 49.1053C11.1273 49.0901 11.0381 49.0609 10.9326 49.0149C10.8271 48.969 10.6975 48.9018 10.5406 48.8144C10.3739 48.7214 10.2428 48.6432 10.1484 48.5778C10.052 48.5112 9.97831 48.4496 9.92972 48.3943C9.87893 48.3378 9.84927 48.2854 9.83875 48.2308C9.82915 48.1793 9.83078 48.1213 9.84591 48.0578L10.1757 46.0753C10.2276 45.7863 10.2525 45.5362 10.2514 45.3228C10.2504 45.1094 10.2232 44.9199 10.1685 44.7562C10.1147 44.5954 10.0279 44.4522 9.91085 44.3305C9.7908 44.2097 9.64407 44.0997 9.46762 44.0013L9.12842 43.8123L7.45844 46.7807C7.43531 46.8217 7.40377 46.8502 7.36378 46.8665C7.32569 46.8837 7.27137 46.8842 7.20247 46.874C7.13357 46.8637 7.04832 46.8367 6.94666 46.7928C6.84711 46.7501 6.72143 46.6852 6.57435 46.6033C6.42928 46.5224 6.30996 46.4507 6.21736 46.3863C6.12478 46.3219 6.05716 46.2637 6.01235 46.2104C5.96766 46.1573 5.93964 46.1109 5.93055 46.0675C5.92159 46.024 5.92956 45.9823 5.95269 45.9413L9.88891 38.9446C9.91203 38.9036 9.94348 38.8751 9.98548 38.86C10.0274 38.845 10.0818 38.8445 10.1496 38.8566C10.2163 38.8708 10.3017 38.8978 10.4051 38.9427C10.5087 38.9876 10.6324 39.0515 10.7775 39.1323C10.9246 39.2143 11.0459 39.2871 11.1344 39.3494C11.2251 39.4126 11.2938 39.4689 11.3397 39.5201C11.3856 39.5713 11.4136 39.6177 11.4187 39.6589C11.4268 39.6994 11.4189 39.7411 11.3947 39.784L9.83331 42.5592L10.1725 42.7484C10.3451 42.8446 10.5111 42.9064 10.6658 42.9337C10.8235 42.96 10.9818 42.9534 11.1425 42.9149C11.3044 42.8744 11.473 42.7991 11.6482 42.689C11.8234 42.5791 12.0155 42.4298 12.2285 42.2435L13.5574 41.0487C13.6067 41.0069 13.6536 40.9741 13.7007 40.9543C13.7491 40.9324 13.8086 40.9272 13.8784 40.9405C13.9493 40.9519 14.0366 40.9799 14.14 41.0249C14.2416 41.0686 14.3752 41.138 14.5399 41.2298C14.6888 41.3128 14.8101 41.3856 14.9007 41.4489C14.9933 41.5133 15.0621 41.5696 15.1071 41.6177C15.1541 41.667 15.1793 41.7092 15.1804 41.7484C15.1835 41.7886 15.1736 41.8291 15.1505 41.8702C15.1231 41.9189 15.0801 41.9771 15.0219 42.0394C14.9636 42.1018 14.8803 42.1811 14.7713 42.274L13.5344 43.3099C13.305 43.5025 13.0954 43.66 12.9077 43.7783C12.7189 43.8987 12.5405 43.9915 12.3716 44.0538C12.2035 44.1191 12.0408 44.1565 11.8842 44.1693C11.7297 44.1831 11.569 44.1756 11.4033 44.1498L11.4011 44.1537C11.5167 44.3053 11.6153 44.4551 11.6926 44.606C11.7709 44.7599 11.8304 44.9288 11.8699 45.1149C11.9063 45.3019 11.9255 45.5152 11.9222 45.7544C11.9171 45.9924 11.8927 46.2737 11.8462 46.5989L11.5919 48.4749C11.5668 48.666 11.5416 48.793 11.5194 48.8601C11.4982 48.9252 11.4766 48.9773 11.4547 49.0162ZM32.4939 49.3611C32.5062 49.2696 32.5117 49.1623 32.513 49.0348C32.5143 48.905 32.511 48.7932 32.5007 48.7013C32.4904 48.6095 32.4754 48.5356 32.4535 48.4817C32.4315 48.4255 32.405 48.3872 32.3715 48.3623C32.338 48.3373 32.3022 48.3258 32.2641 48.3254L26.2646 48.2649C26.2219 48.2645 26.1836 48.2753 26.1519 48.2996C26.1224 48.3239 26.0951 48.3616 26.072 48.4174C26.0513 48.4708 26.0325 48.5445 26.0203 48.6361C26.0082 48.7276 26.0025 48.8394 26.0013 48.9691C25.9999 49.0966 26.0034 49.204 26.0137 49.2959C26.0239 49.3854 26.0413 49.4572 26.0609 49.5111C26.0828 49.5673 26.1094 49.6077 26.1383 49.6326C26.1695 49.6598 26.2076 49.6736 26.2503 49.674L28.3804 49.6956L28.3108 56.5333C28.3104 56.5758 28.3234 56.6161 28.3522 56.6523C28.3812 56.6861 28.428 56.7157 28.4931 56.7387C28.558 56.7595 28.6477 56.7783 28.7599 56.7929C28.8721 56.8073 29.0114 56.8155 29.1776 56.8173C29.3438 56.8189 29.4833 56.8135 29.5958 56.8013C29.7082 56.789 29.7983 56.7719 29.8637 56.7525C29.929 56.7308 29.9765 56.7022 30.0061 56.6689C30.0356 56.6334 30.0496 56.5933 30.05 56.5508L30.1196 49.7131L32.2497 49.7346C32.2879 49.7349 32.3263 49.7219 32.358 49.6954C32.3919 49.6711 32.4193 49.6311 32.4423 49.5754C32.4654 49.522 32.4818 49.4506 32.4939 49.3611ZM53.3037 46.0122C53.3239 46.0547 53.3292 46.0968 53.3194 46.1387C53.3116 46.1796 53.2807 46.224 53.2276 46.2741C53.1754 46.3212 53.1001 46.3769 53.0015 46.4361C52.9028 46.4953 52.7731 46.5621 52.6108 46.6392C52.4384 46.7212 52.2986 46.7827 52.1904 46.8218C52.0802 46.8619 51.9872 46.8862 51.9137 46.8938C51.8381 46.9025 51.7779 46.8965 51.7271 46.8735C51.6793 46.8517 51.6327 46.8168 51.5893 46.768L50.1524 45.3565C49.9452 45.1477 49.7541 44.9832 49.5784 44.861C49.4028 44.7387 49.2315 44.6516 49.0656 44.6016C48.9026 44.5527 48.735 44.5407 48.5677 44.5657C48.3993 44.5937 48.2244 44.6495 48.0418 44.7364L47.6911 44.9032L49.1643 47.9732C49.1846 48.0155 49.1899 48.0576 49.1801 48.0996C49.1723 48.1404 49.1414 48.1849 49.0932 48.235C49.0451 48.2852 48.9738 48.3389 48.8792 48.3962C48.7867 48.4526 48.661 48.5175 48.5089 48.5898C48.3588 48.6611 48.2312 48.7168 48.125 48.7549C48.0187 48.793 47.9319 48.8145 47.8625 48.8203C47.793 48.826 47.7388 48.8221 47.6979 48.8043C47.657 48.7865 47.6275 48.756 47.6072 48.7136L44.1348 41.4777C44.1144 41.4352 44.1091 41.3931 44.1209 41.3504C44.1328 41.3076 44.1637 41.2631 44.2129 41.215C44.2629 41.1688 44.3343 41.1151 44.4309 41.0568C44.5274 40.9985 44.6511 40.9346 44.8012 40.8633C44.9532 40.7909 45.0829 40.7343 45.1851 40.6981C45.2893 40.6609 45.3752 40.6375 45.4436 40.6297C45.5122 40.6219 45.5663 40.6259 45.6031 40.6455C45.641 40.6622 45.6707 40.6927 45.692 40.7371L47.0692 43.6073L47.4201 43.4406C47.5985 43.3557 47.745 43.2562 47.8566 43.1461C47.9692 43.0331 48.055 42.9006 48.1161 42.7476C48.1761 42.5927 48.2117 42.4122 48.2224 42.2062C48.2332 42.0003 48.2214 41.758 48.1914 41.4774L47.9771 39.7076C47.9712 39.6434 47.9713 39.5864 47.9822 39.5366C47.9921 39.4848 48.0223 39.4333 48.0735 39.3842C48.1235 39.333 48.197 39.2783 48.2935 39.22C48.3881 39.1627 48.5219 39.0941 48.6922 39.013C48.8463 38.9397 48.976 38.8831 49.0802 38.846C49.1864 38.8078 49.2723 38.7843 49.3378 38.7755C49.4052 38.7657 49.4545 38.7696 49.4873 38.7912C49.5221 38.8118 49.5496 38.8433 49.57 38.8857C49.5942 38.9362 49.6171 39.0046 49.6346 39.0879C49.6522 39.1714 49.6693 39.2847 49.6828 39.427L49.8196 41.0303C49.8454 41.3279 49.8537 41.5892 49.8427 41.8101C49.8326 42.033 49.8059 42.2317 49.7596 42.4049C49.7162 42.5793 49.6532 42.7332 49.5733 42.8679C49.4955 43.0015 49.3967 43.1278 49.28 43.2478L49.2819 43.2518C49.473 43.2453 49.6528 43.2515 49.8213 43.2755C49.9926 43.3006 50.1656 43.3497 50.3412 43.4249C50.5157 43.503 50.7017 43.6104 50.8961 43.751C51.0885 43.8925 51.3054 44.0745 51.5456 44.2999L52.9384 45.5886C53.0808 45.7191 53.1705 45.8128 53.2127 45.8696C53.2539 45.9244 53.2842 45.972 53.3037 46.0122Z" fill="#0B32A9"/>
</g>
<path fill-rule="evenodd" clip-rule="evenodd" d="M83.075 38.742C83.075 38.8617 83.0405 38.9643 82.9715 39.0497C82.9083 39.1352 82.7876 39.2036 82.6093 39.2606C82.4368 39.3118 82.2012 39.3574 81.9079 39.3859C81.6148 39.4144 81.241 39.4257 80.7811 39.4257C80.2925 39.4257 79.9016 39.4144 79.6083 39.3859C79.3094 39.3574 79.0679 39.3118 78.8896 39.2492C78.7057 39.1865 78.5734 39.1067 78.4815 38.9984C78.3953 38.8959 78.3263 38.7648 78.2803 38.6053L76.5268 33.7906C76.2796 33.084 76.0208 32.4972 75.7507 32.0243C75.4804 31.5514 75.1815 31.1639 74.8538 30.8676C74.5319 30.577 74.1582 30.3661 73.7442 30.2409C73.3246 30.1212 72.8589 30.0584 72.3415 30.0584H71.3469V38.7249C71.3469 38.8446 71.3124 38.9472 71.2434 39.0327C71.1801 39.1181 71.0594 39.1865 70.8927 39.2492C70.7259 39.3118 70.5018 39.3574 70.2201 39.3859C69.9441 39.4144 69.582 39.4257 69.1507 39.4257C68.7253 39.4257 68.3688 39.4144 68.0814 39.3859C67.7939 39.3574 67.5698 39.3118 67.403 39.2492C67.2363 39.1865 67.1156 39.1181 67.0408 39.0327C66.9661 38.9472 66.9316 38.8446 66.9316 38.7249V18.298C66.9316 18.1784 66.9661 18.0758 67.0408 17.9904C67.1156 17.9049 67.2363 17.8365 67.403 17.7795C67.5698 17.7283 67.7939 17.6827 68.0814 17.6542C68.3688 17.6256 68.7253 17.6143 69.1507 17.6143C69.582 17.6143 69.9441 17.6256 70.2201 17.6542C70.5018 17.6827 70.7259 17.7225 70.8927 17.7795C71.0594 17.8365 71.1801 17.9049 71.2434 17.9904C71.3124 18.0701 71.3469 18.1726 71.3469 18.298V26.4004H72.3415C72.8474 26.4004 73.2958 26.332 73.6752 26.201C74.0604 26.0642 74.4054 25.8535 74.7158 25.5685C75.0263 25.2779 75.308 24.9018 75.5609 24.4403C75.8139 23.9788 76.0554 23.4091 76.2968 22.7309L77.7629 18.429C77.8203 18.2752 77.8836 18.1442 77.9641 18.0416C78.0445 17.9333 78.171 17.8479 78.3435 17.7909C78.516 17.7283 78.7459 17.6827 79.0334 17.6542C79.3151 17.6256 79.7003 17.6143 80.1832 17.6143C80.6202 17.6143 80.9823 17.6256 81.264 17.6542C81.5515 17.6827 81.7757 17.7225 81.9367 17.7738C82.1034 17.8251 82.2126 17.8878 82.2644 17.9732C82.3219 18.0587 82.3506 18.1612 82.3506 18.2809C82.3506 18.4233 82.3277 18.6057 82.2759 18.8165C82.2241 19.0273 82.1379 19.3065 82.0114 19.6484L80.5512 23.4831C80.2809 24.1954 80.0107 24.805 79.7406 25.3007C79.4703 25.8021 79.1886 26.2295 78.8896 26.577C78.5965 26.9303 78.2803 27.2151 77.9468 27.4375C77.6191 27.6596 77.2512 27.842 76.8488 27.9902V28.0015C77.2972 28.1952 77.7054 28.4061 78.0676 28.6454C78.4354 28.8904 78.7804 29.1923 79.1023 29.557C79.4186 29.9275 79.729 30.3776 80.0223 30.9131C80.3097 31.4487 80.6086 32.104 80.9133 32.8846L82.7013 37.3689C82.8852 37.8247 82.9888 38.138 83.0232 38.3147C83.0578 38.4857 83.075 38.6281 83.075 38.742ZM100.799 31.1582C100.799 32.4231 100.633 33.5797 100.293 34.6281C99.9543 35.6709 99.4484 36.5712 98.7585 37.329C98.0744 38.0868 97.2177 38.668 96.1828 39.0839C95.1481 39.4941 93.9408 39.6993 92.561 39.6993C91.2215 39.6993 90.0601 39.517 89.0713 39.1466C88.0825 38.7819 87.2603 38.2463 86.6107 37.5455C85.961 36.8447 85.4781 35.9843 85.1619 34.9587C84.8457 33.9387 84.6905 32.7707 84.6905 31.4544C84.6905 30.1895 84.8629 29.0272 85.2022 27.9787C85.5471 26.9246 86.0588 26.0243 86.7487 25.2723C87.4329 24.5258 88.2894 23.9446 89.3185 23.5287C90.3418 23.1184 91.5492 22.9133 92.929 22.9133C94.28 22.9133 95.447 23.0956 96.4359 23.4546C97.4247 23.8192 98.2411 24.3492 98.885 25.05C99.5346 25.7508 100.012 26.6112 100.328 27.6369C100.644 28.6568 100.799 29.8305 100.799 31.1582ZM96.4532 31.3234C96.4532 30.5883 96.3956 29.9103 96.2749 29.2949C96.1542 28.6739 95.9587 28.1383 95.6713 27.6824C95.3895 27.2266 95.0159 26.8677 94.5502 26.6112C94.0787 26.3548 93.4924 26.2295 92.7795 26.2295C92.147 26.2295 91.5952 26.3434 91.1179 26.5713C90.6466 26.7992 90.2556 27.1354 89.9509 27.5741C89.6462 28.0129 89.4163 28.5428 89.2668 29.1581C89.1116 29.7792 89.0368 30.4801 89.0368 31.2721C89.0368 32.0072 89.1 32.6852 89.2208 33.3005C89.3472 33.9217 89.5484 34.4572 89.8245 34.9131C90.1004 35.3689 90.474 35.7222 90.9513 35.9728C91.4227 36.2236 92.0091 36.349 92.7105 36.349C93.3544 36.349 93.912 36.235 94.3892 36.007C94.8607 35.7792 95.2516 35.4487 95.5563 35.0156C95.861 34.5768 96.0851 34.0527 96.2346 33.4373C96.3784 32.8163 96.4532 32.1154 96.4532 31.3234ZM118.725 38.7592C118.725 38.8674 118.691 38.9643 118.622 39.0497C118.558 39.1352 118.443 39.2036 118.288 39.2606C118.127 39.3118 117.909 39.3574 117.633 39.3859C117.357 39.4144 117.018 39.4257 116.615 39.4257C116.195 39.4257 115.851 39.4144 115.575 39.3859C115.299 39.3574 115.08 39.3118 114.919 39.2606C114.764 39.2036 114.649 39.1352 114.586 39.0497C114.517 38.9643 114.482 38.8674 114.482 38.7592V32.896H108.411V38.7592C108.411 38.8674 108.377 38.9643 108.308 39.0497C108.245 39.1352 108.13 39.2036 107.963 39.2606C107.802 39.3118 107.583 39.3574 107.319 39.3859C107.049 39.4144 106.704 39.4257 106.29 39.4257C105.876 39.4257 105.531 39.4144 105.261 39.3859C104.996 39.3574 104.778 39.3118 104.617 39.2606C104.45 39.2036 104.335 39.1352 104.272 39.0497C104.203 38.9643 104.168 38.8674 104.168 38.7592V23.8534C104.168 23.7452 104.203 23.6484 104.272 23.5629C104.335 23.4774 104.45 23.4091 104.617 23.352C104.778 23.3008 104.996 23.2552 105.261 23.2267C105.531 23.1982 105.876 23.1868 106.29 23.1868C106.704 23.1868 107.049 23.1982 107.319 23.2267C107.583 23.2552 107.802 23.3008 107.963 23.352C108.13 23.4091 108.245 23.4774 108.308 23.5629C108.377 23.6484 108.411 23.7452 108.411 23.8534V29.4431H114.482V23.8534C114.482 23.7452 114.517 23.6484 114.586 23.5629C114.649 23.4774 114.764 23.4091 114.919 23.352C115.08 23.3008 115.299 23.2552 115.575 23.2267C115.851 23.1982 116.195 23.1868 116.615 23.1868C117.018 23.1868 117.357 23.1982 117.633 23.2267C117.909 23.2552 118.127 23.3008 118.288 23.352C118.443 23.4091 118.558 23.4774 118.622 23.5629C118.691 23.6484 118.725 23.7452 118.725 23.8534V38.7592ZM134.121 25.1354C134.121 25.5001 134.11 25.8079 134.081 26.0529C134.052 26.2921 134.006 26.4916 133.954 26.634C133.897 26.7765 133.828 26.879 133.742 26.9303C133.655 26.9873 133.563 27.0158 133.466 27.0158H129.671V38.7592C129.671 38.8674 129.637 38.9643 129.568 39.0497C129.505 39.1352 129.39 39.2036 129.234 39.2606C129.079 39.3118 128.861 39.3574 128.585 39.3859C128.309 39.4144 127.964 39.4257 127.55 39.4257C127.147 39.4257 126.808 39.4144 126.538 39.3859C126.274 39.3574 126.055 39.3118 125.894 39.2606C125.727 39.2036 125.618 39.1352 125.555 39.0497C125.492 38.9643 125.463 38.8674 125.463 38.7592V27.0158H121.686C121.571 27.0158 121.473 26.9873 121.393 26.9246C121.306 26.862 121.237 26.7593 121.18 26.6169C121.122 26.4745 121.082 26.2751 121.053 26.0186C121.025 25.7622 121.013 25.4545 121.013 25.0842C121.013 24.7537 121.03 24.4745 121.065 24.2466C121.099 24.0187 121.14 23.8307 121.197 23.6883C121.255 23.5457 121.324 23.4432 121.398 23.3805C121.479 23.3178 121.577 23.2893 121.686 23.2893H133.466C133.563 23.2893 133.655 23.3178 133.742 23.3805C133.828 23.4432 133.897 23.5457 133.954 23.6883C134.012 23.8307 134.052 24.0244 134.081 24.2637C134.11 24.5031 134.121 24.7936 134.121 25.1354ZM149.218 38.8104C149.218 38.9643 149.161 39.0839 149.051 39.1751C148.936 39.2663 148.758 39.329 148.517 39.3688C148.275 39.4087 147.919 39.4257 147.442 39.4257C146.936 39.4257 146.568 39.4087 146.338 39.3688C146.108 39.329 145.941 39.2663 145.849 39.1751C145.751 39.0839 145.705 38.9643 145.705 38.8104V37.6253C145.085 38.2806 144.383 38.7876 143.59 39.1523C142.802 39.517 141.923 39.6993 140.957 39.6993C140.163 39.6993 139.427 39.5967 138.761 39.3916C138.094 39.1865 137.519 38.8788 137.03 38.4743C136.541 38.064 136.162 37.5626 135.892 36.9643C135.622 36.3603 135.489 35.6595 135.489 34.8617C135.489 33.99 135.662 33.2379 136.001 32.5997C136.346 31.9558 136.858 31.4317 137.536 31.01C138.214 30.594 139.054 30.2864 140.066 30.087C141.072 29.8876 142.245 29.7849 143.578 29.7849H145.044V28.8846C145.044 28.4175 144.998 28.0072 144.901 27.6539C144.809 27.3064 144.648 27.0101 144.429 26.7765C144.211 26.5429 143.923 26.3719 143.555 26.258C143.193 26.1497 142.739 26.0928 142.204 26.0928C141.497 26.0928 140.865 26.1725 140.313 26.3264C139.755 26.4802 139.266 26.6568 138.841 26.8448C138.416 27.0329 138.059 27.2095 137.772 27.3634C137.484 27.5172 137.254 27.597 137.076 27.597C136.95 27.597 136.84 27.5571 136.748 27.4831C136.651 27.4033 136.57 27.2893 136.513 27.1468C136.449 27.0044 136.403 26.8221 136.369 26.6112C136.334 26.4004 136.317 26.1668 136.317 25.9161C136.317 25.5685 136.346 25.295 136.403 25.0956C136.455 24.8962 136.564 24.7195 136.72 24.5542C136.881 24.3947 137.151 24.2181 137.548 24.0244C137.938 23.8307 138.398 23.6484 138.927 23.4831C139.456 23.3122 140.031 23.1754 140.652 23.0729C141.279 22.9645 141.923 22.9133 142.584 22.9133C143.762 22.9133 144.768 23.0273 145.608 23.2552C146.441 23.4831 147.131 23.8364 147.666 24.3093C148.206 24.7822 148.603 25.3919 148.85 26.1383C149.097 26.879 149.218 27.7679 149.218 28.7879V38.8104ZM145.044 32.4173H143.429C142.745 32.4173 142.164 32.4687 141.681 32.5655C141.198 32.6681 140.807 32.8163 140.503 33.0214C140.198 33.2208 139.979 33.4601 139.841 33.745C139.698 34.0299 139.629 34.3547 139.629 34.7194C139.629 35.3462 139.83 35.8361 140.227 36.1894C140.623 36.5484 141.175 36.725 141.882 36.725C142.474 36.725 143.021 36.5768 143.521 36.2749C144.021 35.9728 144.527 35.5342 145.044 34.953V32.4173ZM167.558 38.9244C167.558 39.0156 167.529 39.0896 167.466 39.1523C167.402 39.2093 167.293 39.2606 167.138 39.3005C166.983 39.3403 166.764 39.3688 166.488 39.3916C166.218 39.4144 165.873 39.4257 165.459 39.4257C164.988 39.4257 164.603 39.4144 164.298 39.3916C163.993 39.3688 163.758 39.3403 163.574 39.3005C163.395 39.2606 163.269 39.2036 163.188 39.1238C163.114 39.0497 163.05 38.9529 163.004 38.8389L161.607 35.2834C161.435 34.8048 161.251 34.4003 161.055 34.0812C160.86 33.7564 160.642 33.5 160.406 33.3005C160.17 33.1068 159.9 32.9701 159.595 32.8846C159.296 32.7991 158.946 32.7592 158.555 32.7592H157.692V38.8389C157.692 38.9186 157.652 38.9928 157.577 39.0669C157.497 39.1409 157.37 39.2036 157.204 39.2606C157.037 39.3118 156.818 39.3574 156.548 39.3859C156.278 39.4144 155.95 39.4257 155.571 39.4257C155.18 39.4257 154.846 39.4144 154.576 39.3859C154.306 39.3574 154.088 39.3118 153.921 39.2606C153.754 39.2036 153.633 39.1409 153.559 39.0669C153.484 38.9928 153.449 38.9186 153.449 38.8389V23.7566C153.449 23.6768 153.484 23.6028 153.559 23.5287C153.633 23.4546 153.754 23.3976 153.921 23.3463C154.088 23.2951 154.306 23.2552 154.576 23.2267C154.846 23.1982 155.18 23.1868 155.571 23.1868C155.95 23.1868 156.278 23.1982 156.548 23.2267C156.818 23.2552 157.037 23.2951 157.204 23.3463C157.37 23.3976 157.497 23.4546 157.577 23.5287C157.652 23.6028 157.692 23.6768 157.692 23.7566V29.5456H158.549C158.9 29.5456 159.216 29.5057 159.498 29.4203C159.773 29.3348 160.032 29.198 160.262 29.0043C160.492 28.8106 160.705 28.5485 160.9 28.2294C161.096 27.9047 161.285 27.5058 161.464 27.0271L162.728 23.8192C162.763 23.711 162.82 23.6141 162.895 23.5287C162.976 23.4432 163.096 23.3805 163.257 23.3293C163.424 23.278 163.648 23.2438 163.936 23.221C164.217 23.1982 164.597 23.1868 165.068 23.1868C165.488 23.1868 165.827 23.1982 166.092 23.221C166.356 23.2438 166.563 23.278 166.713 23.3178C166.862 23.3634 166.971 23.4204 167.023 23.4774C167.081 23.54 167.109 23.6141 167.109 23.7053C167.109 23.8135 167.086 23.9503 167.04 24.1041C166.994 24.2637 166.92 24.4745 166.805 24.7424L165.609 27.5799C165.373 28.144 165.126 28.6283 164.861 29.0215C164.597 29.4203 164.327 29.745 164.051 30.0015C163.775 30.2579 163.499 30.463 163.217 30.6169C162.935 30.7764 162.671 30.896 162.412 30.9872V31.0214C162.757 31.1639 163.085 31.3177 163.384 31.4886C163.689 31.6539 163.976 31.8704 164.252 32.1382C164.528 32.4059 164.792 32.7365 165.045 33.1354C165.293 33.5285 165.546 34.0071 165.793 34.5598L167.253 37.9044C167.322 38.0469 167.374 38.1723 167.414 38.2806C167.454 38.3888 167.483 38.48 167.506 38.5654C167.529 38.6508 167.546 38.7193 167.552 38.7762C167.558 38.8275 167.558 38.8788 167.558 38.9244ZM185.098 31.1582C185.098 32.4231 184.931 33.5797 184.592 34.6281C184.253 35.6709 183.747 36.5712 183.057 37.329C182.373 38.0868 181.516 38.668 180.482 39.0839C179.447 39.4941 178.239 39.6993 176.86 39.6993C175.52 39.6993 174.359 39.517 173.37 39.1466C172.381 38.7819 171.559 38.2463 170.909 37.5455C170.26 36.8447 169.777 35.9843 169.461 34.9587C169.144 33.9387 168.989 32.7707 168.989 31.4544C168.989 30.1895 169.162 29.0272 169.501 27.9787C169.846 26.9246 170.358 26.0243 171.047 25.2723C171.732 24.5258 172.588 23.9446 173.617 23.5287C174.641 23.1184 175.848 22.9133 177.228 22.9133C178.579 22.9133 179.746 23.0956 180.735 23.4546C181.723 23.8192 182.54 24.3492 183.184 25.05C183.833 25.7508 184.31 26.6112 184.627 27.6369C184.943 28.6568 185.098 29.8305 185.098 31.1582ZM180.752 31.3234C180.752 30.5883 180.694 29.9103 180.574 29.2949C180.453 28.6739 180.257 28.1383 179.97 27.6824C179.688 27.2266 179.315 26.8677 178.849 26.6112C178.377 26.3548 177.791 26.2295 177.078 26.2295C176.446 26.2295 175.894 26.3434 175.417 26.5713C174.945 26.7992 174.554 27.1354 174.25 27.5741C173.945 28.0129 173.715 28.5428 173.566 29.1581C173.41 29.7792 173.336 30.4801 173.336 31.2721C173.336 32.0072 173.399 32.6852 173.519 33.3005C173.646 33.9217 173.847 34.4572 174.123 34.9131C174.399 35.3689 174.773 35.7222 175.25 35.9728C175.721 36.2236 176.308 36.349 177.009 36.349C177.653 36.349 178.211 36.235 178.688 36.007C179.159 35.7792 179.55 35.4487 179.855 35.0156C180.16 34.5768 180.384 34.0527 180.533 33.4373C180.677 32.8163 180.752 32.1154 180.752 31.3234ZM209.629 38.6737C209.652 38.9529 209.52 39.1466 209.244 39.2606C208.963 39.3688 208.457 39.4257 207.738 39.4257C207.301 39.4257 206.95 39.4201 206.686 39.4087C206.421 39.3973 206.22 39.3688 206.077 39.3232C205.939 39.2834 205.841 39.215 205.789 39.1352C205.737 39.0497 205.709 38.9415 205.697 38.8104L204.806 30.8049C204.777 30.5143 204.743 30.1952 204.714 29.8363C204.691 29.4829 204.662 29.1182 204.634 28.7536C204.605 28.3833 204.582 28.0186 204.559 27.6596C204.536 27.2949 204.507 26.9702 204.472 26.6797L204.49 26.2636C204.409 26.5656 204.323 26.8904 204.231 27.2494C204.133 27.6027 204.03 27.9673 203.921 28.332C203.806 28.7024 203.702 29.0671 203.599 29.4259C203.501 29.7907 203.403 30.1155 203.311 30.406L200.678 38.6565C200.632 38.7934 200.563 38.9073 200.477 39.0099C200.385 39.1067 200.258 39.1865 200.097 39.2492C199.931 39.3118 199.724 39.3574 199.471 39.3859C199.224 39.4144 198.902 39.4257 198.522 39.4257C198.177 39.4257 197.878 39.4144 197.637 39.3859C197.395 39.3574 197.194 39.3118 197.033 39.2492C196.872 39.1865 196.746 39.1067 196.654 39.0099C196.568 38.9073 196.504 38.7876 196.47 38.6395L193.888 30.406C193.802 30.1155 193.704 29.7907 193.595 29.4374C193.486 29.0784 193.383 28.7195 193.273 28.349C193.17 27.9844 193.066 27.6197 192.974 27.255C192.877 26.8961 192.796 26.5656 192.727 26.2636L192.744 26.6797C192.721 26.9702 192.698 27.2949 192.675 27.6596C192.652 28.0186 192.629 28.3833 192.595 28.7536C192.56 29.1182 192.526 29.4829 192.491 29.8363C192.457 30.1952 192.434 30.5143 192.411 30.8049L191.554 38.7079C191.531 38.8503 191.491 38.97 191.434 39.0669C191.382 39.1637 191.273 39.2377 191.117 39.2948C190.956 39.346 190.744 39.3859 190.473 39.403C190.203 39.4201 189.847 39.4257 189.41 39.4257C189.019 39.4257 188.703 39.4144 188.467 39.3916C188.231 39.3688 188.047 39.329 187.915 39.2663C187.789 39.2036 187.702 39.1295 187.662 39.0327C187.628 38.9358 187.61 38.8161 187.622 38.6737L189.105 24.7252C189.163 24.2466 189.318 23.8876 189.577 23.6484C189.835 23.4091 190.226 23.2893 190.755 23.2893H192.894C193.348 23.2893 193.727 23.3236 194.044 23.3919C194.36 23.4546 194.63 23.5742 194.866 23.7394C195.107 23.9047 195.303 24.1326 195.458 24.4233C195.613 24.7138 195.757 25.0785 195.878 25.5115L197.568 30.6225C197.666 30.9587 197.769 31.3063 197.867 31.6653C197.97 32.0299 198.074 32.3889 198.172 32.7535C198.275 33.1125 198.367 33.4658 198.447 33.802C198.534 34.1439 198.608 34.4629 198.678 34.765H198.695C198.764 34.4629 198.838 34.1382 198.93 33.7792C199.022 33.4202 199.114 33.0613 199.206 32.6909C199.304 32.3262 199.402 31.9616 199.511 31.6083C199.615 31.2493 199.718 30.9188 199.821 30.6055L201.5 25.5115C201.609 25.1127 201.736 24.7651 201.868 24.4859C202.006 24.201 202.179 23.9731 202.391 23.7965C202.604 23.6255 202.869 23.5002 203.185 23.4147C203.495 23.3293 203.886 23.2893 204.346 23.2893H206.462C207.002 23.2893 207.405 23.4091 207.669 23.6484C207.928 23.8876 208.083 24.2466 208.129 24.7252L209.629 38.6737Z" fill="#0B32A9"/>
<path d="M210 43.375H66.5837V47.3634H210V43.375Z" fill="#0B32A9"/>
</svg>
