<svg width="210" height="64" viewBox="0 0 210 64" fill="none" xmlns="http://www.w3.org/2000/svg">
<mask id="mask0_4004_143" style="mask-type:alpha" maskUnits="userSpaceOnUse" x="0" y="0" width="58" height="64">
<path fill-rule="evenodd" clip-rule="evenodd" d="M28.871 0.5L57.7422 15.1332V48.9465L28.871 63.5L0 48.9465V15.1332L28.871 0.5Z" fill="#2D2985"/>
</mask>
<g mask="url(#mask0_4004_143)">
<path fill-rule="evenodd" clip-rule="evenodd" d="M28.8874 1.70264L25.4745 19.3519C26.7805 19.539 28.1167 19.6357 29.4708 19.6357C30.4866 19.6357 31.4927 19.5811 32.4839 19.4747L28.8874 1.70264ZM25.2074 20.7333L23.7535 28.2513C25.4643 28.4849 27.2099 28.6056 28.977 28.6056C30.7645 28.6056 32.5296 28.4823 34.2583 28.2435L32.7639 20.8587C31.6807 20.9803 30.5809 21.0426 29.4708 21.0426C28.027 21.0426 26.6014 20.9372 25.2074 20.7333ZM49.6396 10.0211C49.8607 9.70239 50.2994 9.62241 50.6196 9.84247C50.9398 10.0625 51.0201 10.4993 50.7991 10.818C50.6621 11.0145 50.5215 11.2086 50.3775 11.4003L49.102 10.7539C49.2872 10.5137 49.4665 10.2694 49.6396 10.0211ZM30.2183 1.18275L49.102 10.7539C47.0731 13.385 44.3285 15.5277 41.1462 17.0491C38.9098 18.1183 36.4566 18.8803 33.8823 19.289L30.2183 1.18275ZM27.5541 1.16737L24.0832 19.1161C21.73 18.6552 19.4925 17.8971 17.4459 16.8789C14.2337 15.2806 11.4906 13.0436 9.50897 10.3135L27.5541 1.16737ZM27.5541 1.16737L28.178 -2.05894L28.8709 -1.92699L29.5612 -2.06445L30.2183 1.18275L28.871 0.499893L27.5541 1.16737ZM57.288 14.9029C54.5771 18.7766 50.8527 21.9798 46.488 24.3131C43.1877 26.0774 39.5216 27.3433 35.6501 28.025L34.1613 20.6675C36.8467 20.234 39.4103 19.4335 41.7536 18.3133C45.2165 16.6578 48.1967 14.3029 50.3775 11.4003L57.288 14.9029ZM57.7421 16.6664V15.1331L57.288 14.9029C57.7682 14.2168 58.2166 13.5097 58.6311 12.7827C58.8232 12.4458 59.2533 12.3277 59.5918 12.5189C59.9302 12.7101 60.049 13.1383 59.8568 13.4753C59.2243 14.5847 58.5172 15.6496 57.7421 16.6664ZM57.7421 25.9089C54.3191 29.5332 50.232 32.4127 45.7441 34.4291C43.1096 35.6128 40.3367 36.4981 37.4788 37.0616L35.9291 29.4036C39.9358 28.6935 43.7334 27.3795 47.1561 25.5498C51.3473 23.3092 54.977 20.2941 57.7421 16.6664V25.9089ZM57.7421 27.9159V25.9089C58.0351 25.5987 58.3233 25.283 58.6064 24.9619C58.8625 24.6705 59.3075 24.6409 59.6002 24.8959C59.893 25.1509 59.9226 25.5939 59.6665 25.8853C59.0475 26.5873 58.4056 27.2644 57.7421 27.9159ZM41.537 57.1152L37.7578 38.44C40.7186 37.8552 43.5924 36.9369 46.3239 35.7097C50.5359 33.8173 54.4095 31.189 57.7421 27.9159V48.9464L41.537 57.1152ZM40.2339 57.7721L41.537 57.1152L42.246 60.6189L40.8656 60.8938L40.2339 57.7721ZM17.9972 58.0185L21.8048 38.3288C24.4894 38.8983 27.2525 39.1935 30.0537 39.1935C32.1854 39.1935 34.2977 39.0224 36.3721 38.6885L40.2339 57.7721L28.871 63.4999L17.9972 58.0185ZM16.688 57.3586L17.9972 58.0185L17.4422 60.8883L16.0564 60.6244L16.688 57.3586ZM-8.58307e-06 25.3781C3.34283 29.3049 7.41054 32.4982 11.9373 34.8214C14.6252 36.2007 17.4744 37.2735 20.4293 38.0111L16.688 57.3586L-8.58307e-06 48.9464V25.3781ZM-8.58307e-06 25.3781C-0.732087 24.5181 -1.4294 23.623 -2.08915 22.6941C-2.3133 22.3769 -2.23668 21.9389 -1.91795 21.7157C-1.59932 21.4926 -1.15929 21.5689 -0.935147 21.8862C-0.63159 22.3135 -0.31978 22.7335 -8.58307e-06 23.1459V25.3781ZM-8.58307e-06 16.3856C2.84724 20.2145 6.64762 23.3751 11.0534 25.6848C14.4295 27.4547 18.1614 28.7256 22.0916 29.4151L20.6967 36.629C17.8731 35.9188 15.1512 34.8915 12.5833 33.5737C7.72083 31.0782 3.40824 27.5416 -8.58307e-06 23.1459V16.3856ZM0.611367 14.8232L-8.58307e-06 15.1331V16.3856C-0.586435 15.5969 -1.13243 14.78 -1.63495 13.9362C-1.83318 13.6023 -1.72193 13.1716 -1.38653 12.9743C-1.0511 12.7771 -0.618399 12.8878 -0.420296 13.2217C-0.0953021 13.7674 0.248888 14.3014 0.611367 14.8232ZM8.24056 10.9564C10.3672 13.9536 13.3357 16.4001 16.8166 18.1321C18.979 19.208 21.3388 20.0089 23.8165 20.4953L22.3586 28.0344C18.5637 27.3719 14.9636 26.1481 11.7105 24.4427C7.21342 22.0851 3.37919 18.808 0.611367 14.8232L8.24056 10.9564ZM8.24056 10.9564C8.06211 10.7049 7.88958 10.4495 7.72318 10.1903C7.51426 9.86406 7.61064 9.43097 7.93846 9.22301C8.26624 9.01514 8.70138 9.11108 8.91029 9.43737C9.10123 9.73474 9.3009 10.0268 9.50897 10.3135L8.24056 10.9564ZM23.4861 29.6341L22.0717 36.9481C24.6683 37.5001 27.3422 37.7865 30.0537 37.7865C32.0914 37.7865 34.1102 37.6246 36.0929 37.3087L34.5378 29.6243C32.7175 29.8803 30.859 30.0125 28.977 30.0125C27.1195 30.0125 25.2845 29.8837 23.4861 29.6341ZM11.4546 49.0162C11.4315 49.0572 11.4 49.0858 11.36 49.102C11.3219 49.1192 11.2676 49.1197 11.1958 49.1053C11.1271 49.0901 11.038 49.0609 10.9325 49.0149C10.827 48.969 10.6974 48.9018 10.5405 48.8144C10.3738 48.7214 10.2427 48.6432 10.1483 48.5778C10.0518 48.5112 9.97819 48.4496 9.9296 48.3943C9.8788 48.3378 9.84915 48.2854 9.83863 48.2308C9.82903 48.1793 9.83066 48.1213 9.84579 48.0578L10.1756 46.0753C10.2274 45.7863 10.2524 45.5362 10.2513 45.3228C10.2503 45.1094 10.223 44.9199 10.1683 44.7562C10.1146 44.5954 10.0278 44.4522 9.91073 44.3305C9.79068 44.2097 9.64395 44.0997 9.4675 44.0013L9.12829 43.8123L7.45832 46.7807C7.43519 46.8217 7.40365 46.8502 7.36366 46.8665C7.32557 46.8837 7.27125 46.8842 7.20235 46.874C7.13344 46.8637 7.04819 46.8367 6.94654 46.7928C6.84699 46.7501 6.72131 46.6852 6.57423 46.6033C6.42916 46.5224 6.30984 46.4507 6.21724 46.3863C6.12466 46.3219 6.05704 46.2637 6.01222 46.2104C5.96754 46.1573 5.93951 46.1109 5.93043 46.0675C5.92147 46.024 5.92944 45.9823 5.95257 45.9413L9.88878 38.9446C9.91191 38.9036 9.94336 38.8751 9.98536 38.86C10.0273 38.845 10.0816 38.8445 10.1495 38.8566C10.2162 38.8708 10.3015 38.8978 10.405 38.9427C10.5086 38.9876 10.6323 39.0515 10.7774 39.1323C10.9245 39.2143 11.0458 39.2871 11.1343 39.3494C11.225 39.4126 11.2937 39.4689 11.3396 39.5201C11.3855 39.5713 11.4135 39.6177 11.4186 39.6589C11.4267 39.6994 11.4187 39.7411 11.3945 39.784L9.83319 42.5592L10.1724 42.7484C10.345 42.8446 10.511 42.9064 10.6657 42.9337C10.8234 42.96 10.9817 42.9534 11.1424 42.9149C11.3042 42.8744 11.4729 42.7991 11.6481 42.689C11.8232 42.5791 12.0154 42.4298 12.2284 42.2435L13.5573 41.0487C13.6066 41.0069 13.6535 40.9741 13.7006 40.9543C13.7489 40.9324 13.8085 40.9272 13.8783 40.9405C13.9492 40.9519 14.0364 40.9799 14.1399 41.0249C14.2415 41.0686 14.375 41.138 14.5398 41.2298C14.6887 41.3128 14.81 41.3856 14.9006 41.4489C14.9932 41.5133 15.062 41.5696 15.107 41.6177C15.154 41.667 15.1792 41.7092 15.1802 41.7484C15.1834 41.7886 15.1734 41.8291 15.1504 41.8702C15.123 41.9189 15.0799 41.9771 15.0217 42.0394C14.9634 42.1018 14.8802 42.1811 14.7712 42.274L13.5343 43.3099C13.3049 43.5025 13.0953 43.66 12.9075 43.7783C12.7188 43.8987 12.5404 43.9915 12.3715 44.0538C12.2034 44.1191 12.0407 44.1565 11.8841 44.1693C11.7296 44.1831 11.5689 44.1756 11.4031 44.1498L11.401 44.1537C11.5166 44.3053 11.6152 44.4551 11.6925 44.606C11.7707 44.7599 11.8302 44.9288 11.8698 45.1149C11.9062 45.3019 11.9253 45.5152 11.9221 45.7544C11.9169 45.9924 11.8926 46.2737 11.8461 46.5989L11.5917 48.4749C11.5666 48.666 11.5415 48.793 11.5193 48.8601C11.4981 48.9252 11.4765 48.9773 11.4546 49.0162ZM32.4938 49.3611C32.5061 49.2696 32.5116 49.1623 32.5128 49.0348C32.5142 48.905 32.5108 48.7932 32.5006 48.7013C32.4902 48.6095 32.4753 48.5356 32.4534 48.4817C32.4314 48.4255 32.4048 48.3872 32.3714 48.3623C32.3379 48.3373 32.3021 48.3258 32.2639 48.3254L26.2645 48.2649C26.2218 48.2645 26.1835 48.2753 26.1518 48.2996C26.1223 48.3239 26.0949 48.3616 26.0719 48.4174C26.0511 48.4708 26.0324 48.5445 26.0202 48.6361C26.0081 48.7276 26.0024 48.8394 26.0012 48.9691C25.9998 49.0966 26.0033 49.204 26.0136 49.2959C26.0238 49.3854 26.0412 49.4572 26.0607 49.5111C26.0827 49.5673 26.1093 49.6077 26.1382 49.6326C26.1694 49.6598 26.2075 49.6736 26.2502 49.674L28.3803 49.6956L28.3107 56.5333C28.3103 56.5758 28.3233 56.6161 28.3521 56.6523C28.381 56.6861 28.4279 56.7157 28.4929 56.7387C28.5578 56.7595 28.6475 56.7783 28.7598 56.7929C28.872 56.8073 29.0112 56.8155 29.1774 56.8173C29.3437 56.8189 29.4832 56.8135 29.5956 56.8013C29.7081 56.789 29.7982 56.7719 29.8636 56.7525C29.9289 56.7308 29.9764 56.7022 30.0059 56.6689C30.0355 56.6334 30.0494 56.5933 30.0498 56.5508L30.1195 49.7131L32.2496 49.7346C32.2878 49.7349 32.3261 49.7219 32.3579 49.6954C32.3918 49.6711 32.4192 49.6311 32.4422 49.5754C32.4652 49.522 32.4816 49.4506 32.4938 49.3611ZM53.3035 46.0122C53.3238 46.0547 53.3291 46.0968 53.3193 46.1387C53.3115 46.1796 53.2806 46.224 53.2274 46.2741C53.1753 46.3212 53.1 46.3769 53.0014 46.4361C52.9027 46.4953 52.773 46.5621 52.6107 46.6392C52.4383 46.7212 52.2985 46.7827 52.1903 46.8218C52.08 46.8619 51.9871 46.8862 51.9135 46.8938C51.838 46.9025 51.7778 46.8965 51.727 46.8735C51.6792 46.8517 51.6326 46.8168 51.5892 46.768L50.1523 45.3565C49.9451 45.1477 49.754 44.9832 49.5783 44.861C49.4027 44.7387 49.2314 44.6516 49.0654 44.6016C48.9025 44.5527 48.7348 44.5407 48.5675 44.5657C48.3992 44.5937 48.2242 44.6495 48.0417 44.7364L47.691 44.9032L49.1642 47.9732C49.1845 48.0155 49.1897 48.0576 49.18 48.0996C49.1722 48.1404 49.1413 48.1849 49.0931 48.235C49.0449 48.2852 48.9737 48.3389 48.8791 48.3962C48.7866 48.4526 48.6609 48.5175 48.5088 48.5898C48.3587 48.6611 48.2311 48.7168 48.1249 48.7549C48.0186 48.793 47.9318 48.8145 47.8624 48.8203C47.7929 48.826 47.7387 48.8221 47.6978 48.8043C47.6569 48.7865 47.6273 48.756 47.607 48.7136L44.1347 41.4777C44.1143 41.4352 44.109 41.3931 44.1208 41.3504C44.1327 41.3076 44.1636 41.2631 44.2128 41.215C44.2628 41.1688 44.3342 41.1151 44.4308 41.0568C44.5272 40.9985 44.651 40.9346 44.8011 40.8633C44.9531 40.7909 45.0828 40.7343 45.185 40.6981C45.2892 40.6609 45.3751 40.6375 45.4435 40.6297C45.5121 40.6219 45.5662 40.6259 45.603 40.6455C45.6409 40.6622 45.6706 40.6927 45.6919 40.7371L47.0691 43.6073L47.42 43.4406C47.5984 43.3557 47.7448 43.2562 47.8565 43.1461C47.9691 43.0331 48.0549 42.9006 48.116 42.7476C48.176 42.5927 48.2115 42.4122 48.2223 42.2062C48.233 42.0003 48.2212 41.758 48.1912 41.4774L47.977 39.7076C47.9711 39.6434 47.9712 39.5864 47.9821 39.5366C47.992 39.4848 48.0221 39.4333 48.0734 39.3842C48.1234 39.333 48.1969 39.2783 48.2933 39.22C48.3879 39.1627 48.5217 39.0941 48.692 39.013C48.8462 38.9397 48.9758 38.8831 49.08 38.846C49.1863 38.8078 49.2722 38.7843 49.3377 38.7755C49.4051 38.7657 49.4544 38.7696 49.4872 38.7912C49.522 38.8118 49.5495 38.8433 49.5699 38.8857C49.5941 38.9362 49.617 39.0046 49.6345 39.0879C49.6521 39.1714 49.6692 39.2847 49.6827 39.427L49.8195 41.0303C49.8452 41.3279 49.8536 41.5892 49.8426 41.8101C49.8325 42.033 49.8058 42.2317 49.7595 42.4049C49.7161 42.5793 49.653 42.7332 49.5732 42.8679C49.4953 43.0015 49.3966 43.1278 49.2799 43.2478L49.2818 43.2518C49.4728 43.2453 49.6526 43.2515 49.8211 43.2755C49.9925 43.3006 50.1655 43.3497 50.3411 43.4249C50.5155 43.503 50.7016 43.6104 50.896 43.751C51.0884 43.8925 51.3052 44.0745 51.5454 44.2999L52.9383 45.5886C53.0806 45.7191 53.1704 45.8128 53.2126 45.8696C53.2538 45.9244 53.2841 45.972 53.3035 46.0122Z" fill="white"/>
</g>
<path fill-rule="evenodd" clip-rule="evenodd" d="M83.075 38.742C83.075 38.8617 83.0404 38.9643 82.9715 39.0497C82.9082 39.1352 82.7875 39.2036 82.6092 39.2606C82.4368 39.3118 82.2011 39.3574 81.9079 39.3859C81.6147 39.4144 81.241 39.4257 80.7811 39.4257C80.2924 39.4257 79.9015 39.4144 79.6083 39.3859C79.3093 39.3574 79.0678 39.3118 78.8896 39.2492C78.7057 39.1865 78.5734 39.1067 78.4814 38.9984C78.3952 38.8959 78.3262 38.7648 78.2802 38.6053L76.5267 33.7906C76.2796 33.084 76.0208 32.4972 75.7506 32.0243C75.4803 31.5514 75.1815 31.1639 74.8537 30.8676C74.5318 30.577 74.1581 30.3661 73.7442 30.2409C73.3245 30.1212 72.8588 30.0584 72.3414 30.0584H71.3468V38.7249C71.3468 38.8446 71.3124 38.9472 71.2434 39.0327C71.1801 39.1181 71.0594 39.1865 70.8926 39.2492C70.7259 39.3118 70.5017 39.3574 70.22 39.3859C69.9441 39.4144 69.5819 39.4257 69.1507 39.4257C68.7252 39.4257 68.3688 39.4144 68.0813 39.3859C67.7939 39.3574 67.5697 39.3118 67.403 39.2492C67.2362 39.1865 67.1155 39.1181 67.0408 39.0327C66.966 38.9472 66.9316 38.8446 66.9316 38.7249V18.298C66.9316 18.1784 66.966 18.0758 67.0408 17.9904C67.1155 17.9049 67.2362 17.8365 67.403 17.7795C67.5697 17.7283 67.7939 17.6827 68.0813 17.6542C68.3688 17.6256 68.7252 17.6143 69.1507 17.6143C69.5819 17.6143 69.9441 17.6256 70.22 17.6542C70.5017 17.6827 70.7259 17.7225 70.8926 17.7795C71.0594 17.8365 71.1801 17.9049 71.2434 17.9904C71.3124 18.0701 71.3468 18.1726 71.3468 18.298V26.4004H72.3414C72.8473 26.4004 73.2957 26.332 73.6752 26.201C74.0604 26.0642 74.4053 25.8535 74.7158 25.5685C75.0262 25.2779 75.308 24.9018 75.5609 24.4403C75.8139 23.9788 76.0553 23.4091 76.2968 22.7309L77.7628 18.429C77.8202 18.2752 77.8835 18.1442 77.964 18.0416C78.0445 17.9333 78.171 17.8479 78.3434 17.7909C78.5159 17.7283 78.7458 17.6827 79.0334 17.6542C79.315 17.6256 79.7002 17.6143 80.1831 17.6143C80.6201 17.6143 80.9823 17.6256 81.264 17.6542C81.5514 17.6827 81.7757 17.7225 81.9366 17.7738C82.1034 17.8251 82.2125 17.8878 82.2643 17.9732C82.3218 18.0587 82.3506 18.1612 82.3506 18.2809C82.3506 18.4233 82.3276 18.6057 82.2758 18.8165C82.224 19.0273 82.1378 19.3065 82.0113 19.6484L80.5511 23.4831C80.2809 24.1954 80.0107 24.805 79.7405 25.3007C79.4702 25.8021 79.1885 26.2295 78.8896 26.577C78.5964 26.9303 78.2802 27.2151 77.9467 27.4375C77.619 27.6596 77.2512 27.842 76.8487 27.9902V28.0015C77.2971 28.1952 77.7054 28.4061 78.0675 28.6454C78.4354 28.8904 78.7804 29.1923 79.1023 29.557C79.4185 29.9275 79.7289 30.3776 80.0222 30.9131C80.3096 31.4487 80.6086 32.104 80.9133 32.8846L82.7013 37.3689C82.8852 37.8247 82.9887 38.138 83.0232 38.3147C83.0577 38.4857 83.075 38.6281 83.075 38.742ZM100.799 31.1582C100.799 32.4231 100.633 33.5797 100.293 34.6281C99.9543 35.6709 99.4484 36.5712 98.7585 37.329C98.0743 38.0868 97.2177 38.668 96.1828 39.0839C95.148 39.4941 93.9408 39.6993 92.561 39.6993C91.2214 39.6993 90.0601 39.517 89.0712 39.1466C88.0824 38.7819 87.2602 38.2463 86.6107 37.5455C85.961 36.8447 85.478 35.9843 85.1618 34.9587C84.8457 33.9387 84.6904 32.7707 84.6904 31.4544C84.6904 30.1895 84.8629 29.0272 85.2021 27.9787C85.5471 26.9246 86.0587 26.0243 86.7487 25.2723C87.4328 24.5258 88.2893 23.9446 89.3184 23.5287C90.3418 23.1184 91.5491 22.9133 92.9289 22.9133C94.2799 22.9133 95.447 23.0956 96.4358 23.4546C97.4246 23.8192 98.241 24.3492 98.8849 25.05C99.5345 25.7508 100.012 26.6112 100.328 27.6369C100.644 28.6568 100.799 29.8305 100.799 31.1582ZM96.4531 31.3234C96.4531 30.5883 96.3955 29.9103 96.2749 29.2949C96.1542 28.6739 95.9586 28.1383 95.6712 27.6824C95.3895 27.2266 95.0158 26.8677 94.5501 26.6112C94.0787 26.3548 93.4923 26.2295 92.7794 26.2295C92.1469 26.2295 91.5951 26.3434 91.1179 26.5713C90.6465 26.7992 90.2555 27.1354 89.9509 27.5741C89.6461 28.0129 89.4163 28.5428 89.2667 29.1581C89.1115 29.7792 89.0368 30.4801 89.0368 31.2721C89.0368 32.0072 89.1 32.6852 89.2207 33.3005C89.3472 33.9217 89.5484 34.4572 89.8244 34.9131C90.1003 35.3689 90.474 35.7222 90.9512 35.9728C91.4226 36.2236 92.009 36.349 92.7104 36.349C93.3543 36.349 93.912 36.235 94.3892 36.007C94.8606 35.7792 95.2516 35.4487 95.5562 35.0156C95.8609 34.5768 96.0851 34.0527 96.2346 33.4373C96.3783 32.8163 96.4531 32.1154 96.4531 31.3234ZM118.725 38.7592C118.725 38.8674 118.691 38.9643 118.622 39.0497C118.558 39.1352 118.443 39.2036 118.288 39.2606C118.127 39.3118 117.909 39.3574 117.633 39.3859C117.357 39.4144 117.017 39.4257 116.615 39.4257C116.195 39.4257 115.85 39.4144 115.575 39.3859C115.299 39.3574 115.08 39.3118 114.919 39.2606C114.764 39.2036 114.649 39.1352 114.586 39.0497C114.517 38.9643 114.482 38.8674 114.482 38.7592V32.896H108.411V38.7592C108.411 38.8674 108.377 38.9643 108.308 39.0497C108.244 39.1352 108.129 39.2036 107.963 39.2606C107.802 39.3118 107.583 39.3574 107.319 39.3859C107.049 39.4144 106.704 39.4257 106.29 39.4257C105.876 39.4257 105.531 39.4144 105.261 39.3859C104.996 39.3574 104.778 39.3118 104.617 39.2606C104.45 39.2036 104.335 39.1352 104.272 39.0497C104.203 38.9643 104.168 38.8674 104.168 38.7592V23.8534C104.168 23.7452 104.203 23.6484 104.272 23.5629C104.335 23.4774 104.45 23.4091 104.617 23.352C104.778 23.3008 104.996 23.2552 105.261 23.2267C105.531 23.1982 105.876 23.1868 106.29 23.1868C106.704 23.1868 107.049 23.1982 107.319 23.2267C107.583 23.2552 107.802 23.3008 107.963 23.352C108.129 23.4091 108.244 23.4774 108.308 23.5629C108.377 23.6484 108.411 23.7452 108.411 23.8534V29.4431H114.482V23.8534C114.482 23.7452 114.517 23.6484 114.586 23.5629C114.649 23.4774 114.764 23.4091 114.919 23.352C115.08 23.3008 115.299 23.2552 115.575 23.2267C115.85 23.1982 116.195 23.1868 116.615 23.1868C117.017 23.1868 117.357 23.1982 117.633 23.2267C117.909 23.2552 118.127 23.3008 118.288 23.352C118.443 23.4091 118.558 23.4774 118.622 23.5629C118.691 23.6484 118.725 23.7452 118.725 23.8534V38.7592ZM134.121 25.1354C134.121 25.5001 134.11 25.8079 134.081 26.0529C134.052 26.2921 134.006 26.4916 133.954 26.634C133.897 26.7765 133.828 26.879 133.742 26.9303C133.655 26.9873 133.563 27.0158 133.466 27.0158H129.671V38.7592C129.671 38.8674 129.637 38.9643 129.568 39.0497C129.504 39.1352 129.389 39.2036 129.234 39.2606C129.079 39.3118 128.861 39.3574 128.585 39.3859C128.309 39.4144 127.964 39.4257 127.55 39.4257C127.147 39.4257 126.808 39.4144 126.538 39.3859C126.274 39.3574 126.055 39.3118 125.894 39.2606C125.727 39.2036 125.618 39.1352 125.555 39.0497C125.492 38.9643 125.463 38.8674 125.463 38.7592V27.0158H121.686C121.571 27.0158 121.473 26.9873 121.393 26.9246C121.306 26.862 121.237 26.7593 121.18 26.6169C121.122 26.4745 121.082 26.2751 121.053 26.0186C121.025 25.7622 121.013 25.4545 121.013 25.0842C121.013 24.7537 121.03 24.4745 121.065 24.2466C121.099 24.0187 121.14 23.8307 121.197 23.6883C121.255 23.5457 121.324 23.4432 121.398 23.3805C121.479 23.3178 121.577 23.2893 121.686 23.2893H133.466C133.563 23.2893 133.655 23.3178 133.742 23.3805C133.828 23.4432 133.897 23.5457 133.954 23.6883C134.012 23.8307 134.052 24.0244 134.081 24.2637C134.11 24.5031 134.121 24.7936 134.121 25.1354ZM149.218 38.8104C149.218 38.9643 149.161 39.0839 149.051 39.1751C148.936 39.2663 148.758 39.329 148.517 39.3688C148.275 39.4087 147.919 39.4257 147.442 39.4257C146.936 39.4257 146.568 39.4087 146.338 39.3688C146.108 39.329 145.941 39.2663 145.849 39.1751C145.751 39.0839 145.705 38.9643 145.705 38.8104V37.6253C145.084 38.2806 144.383 38.7876 143.59 39.1523C142.802 39.517 141.922 39.6993 140.957 39.6993C140.163 39.6993 139.427 39.5967 138.761 39.3916C138.094 39.1865 137.519 38.8788 137.03 38.4743C136.541 38.064 136.162 37.5626 135.892 36.9643C135.622 36.3603 135.489 35.6595 135.489 34.8617C135.489 33.99 135.662 33.2379 136.001 32.5997C136.346 31.9558 136.858 31.4317 137.536 31.01C138.214 30.594 139.054 30.2864 140.066 30.087C141.072 29.8876 142.244 29.7849 143.578 29.7849H145.044V28.8846C145.044 28.4175 144.998 28.0072 144.901 27.6539C144.809 27.3064 144.648 27.0101 144.429 26.7765C144.211 26.5429 143.923 26.3719 143.555 26.258C143.193 26.1497 142.739 26.0928 142.204 26.0928C141.497 26.0928 140.865 26.1725 140.313 26.3264C139.755 26.4802 139.266 26.6568 138.841 26.8448C138.416 27.0329 138.059 27.2095 137.772 27.3634C137.484 27.5172 137.254 27.597 137.076 27.597C136.95 27.597 136.84 27.5571 136.748 27.4831C136.651 27.4033 136.57 27.2893 136.513 27.1468C136.449 27.0044 136.403 26.8221 136.369 26.6112C136.334 26.4004 136.317 26.1668 136.317 25.9161C136.317 25.5685 136.346 25.295 136.403 25.0956C136.455 24.8962 136.564 24.7195 136.72 24.5542C136.881 24.3947 137.151 24.2181 137.547 24.0244C137.938 23.8307 138.398 23.6484 138.927 23.4831C139.456 23.3122 140.031 23.1754 140.652 23.0729C141.279 22.9645 141.922 22.9133 142.584 22.9133C143.762 22.9133 144.768 23.0273 145.608 23.2552C146.441 23.4831 147.131 23.8364 147.666 24.3093C148.206 24.7822 148.603 25.3919 148.85 26.1383C149.097 26.879 149.218 27.7679 149.218 28.7879V38.8104ZM145.044 32.4173H143.429C142.745 32.4173 142.164 32.4687 141.681 32.5655C141.198 32.6681 140.807 32.8163 140.502 33.0214C140.198 33.2208 139.979 33.4601 139.841 33.745C139.698 34.0299 139.629 34.3547 139.629 34.7194C139.629 35.3462 139.83 35.8361 140.226 36.1894C140.623 36.5484 141.175 36.725 141.882 36.725C142.474 36.725 143.021 36.5768 143.521 36.2749C144.021 35.9728 144.527 35.5342 145.044 34.953V32.4173ZM167.558 38.9244C167.558 39.0156 167.529 39.0896 167.466 39.1523C167.402 39.2093 167.293 39.2606 167.138 39.3005C166.983 39.3403 166.764 39.3688 166.488 39.3916C166.218 39.4144 165.873 39.4257 165.459 39.4257C164.988 39.4257 164.603 39.4144 164.298 39.3916C163.993 39.3688 163.757 39.3403 163.574 39.3005C163.395 39.2606 163.269 39.2036 163.188 39.1238C163.114 39.0497 163.05 38.9529 163.004 38.8389L161.607 35.2834C161.435 34.8048 161.251 34.4003 161.055 34.0812C160.86 33.7564 160.641 33.5 160.406 33.3005C160.17 33.1068 159.9 32.9701 159.595 32.8846C159.296 32.7991 158.945 32.7592 158.555 32.7592H157.692V38.8389C157.692 38.9186 157.652 38.9928 157.577 39.0669C157.497 39.1409 157.37 39.2036 157.204 39.2606C157.037 39.3118 156.818 39.3574 156.548 39.3859C156.278 39.4144 155.95 39.4257 155.571 39.4257C155.18 39.4257 154.846 39.4144 154.576 39.3859C154.306 39.3574 154.088 39.3118 153.921 39.2606C153.754 39.2036 153.633 39.1409 153.559 39.0669C153.484 38.9928 153.449 38.9186 153.449 38.8389V23.7566C153.449 23.6768 153.484 23.6028 153.559 23.5287C153.633 23.4546 153.754 23.3976 153.921 23.3463C154.088 23.2951 154.306 23.2552 154.576 23.2267C154.846 23.1982 155.18 23.1868 155.571 23.1868C155.95 23.1868 156.278 23.1982 156.548 23.2267C156.818 23.2552 157.037 23.2951 157.204 23.3463C157.37 23.3976 157.497 23.4546 157.577 23.5287C157.652 23.6028 157.692 23.6768 157.692 23.7566V29.5456H158.549C158.9 29.5456 159.216 29.5057 159.497 29.4203C159.773 29.3348 160.032 29.198 160.262 29.0043C160.492 28.8106 160.705 28.5485 160.9 28.2294C161.096 27.9047 161.285 27.5058 161.464 27.0271L162.728 23.8192C162.763 23.711 162.82 23.6141 162.895 23.5287C162.976 23.4432 163.096 23.3805 163.257 23.3293C163.424 23.278 163.648 23.2438 163.936 23.221C164.217 23.1982 164.597 23.1868 165.068 23.1868C165.488 23.1868 165.827 23.1982 166.092 23.221C166.356 23.2438 166.563 23.278 166.712 23.3178C166.862 23.3634 166.971 23.4204 167.023 23.4774C167.08 23.54 167.109 23.6141 167.109 23.7053C167.109 23.8135 167.086 23.9503 167.04 24.1041C166.994 24.2637 166.919 24.4745 166.805 24.7424L165.609 27.5799C165.373 28.144 165.126 28.6283 164.861 29.0215C164.597 29.4203 164.327 29.745 164.051 30.0015C163.775 30.2579 163.499 30.463 163.217 30.6169C162.935 30.7764 162.671 30.896 162.412 30.9872V31.0214C162.757 31.1639 163.085 31.3177 163.384 31.4886C163.689 31.6539 163.976 31.8704 164.252 32.1382C164.528 32.4059 164.792 32.7365 165.045 33.1354C165.293 33.5285 165.545 34.0071 165.793 34.5598L167.253 37.9044C167.322 38.0469 167.374 38.1723 167.414 38.2806C167.454 38.3888 167.483 38.48 167.506 38.5654C167.529 38.6508 167.546 38.7193 167.552 38.7762C167.558 38.8275 167.558 38.8788 167.558 38.9244ZM185.098 31.1582C185.098 32.4231 184.931 33.5797 184.592 34.6281C184.253 35.6709 183.747 36.5712 183.057 37.329C182.373 38.0868 181.516 38.668 180.482 39.0839C179.447 39.4941 178.239 39.6993 176.86 39.6993C175.52 39.6993 174.359 39.517 173.37 39.1466C172.381 38.7819 171.559 38.2463 170.909 37.5455C170.26 36.8447 169.777 35.9843 169.461 34.9587C169.144 33.9387 168.989 32.7707 168.989 31.4544C168.989 30.1895 169.162 29.0272 169.501 27.9787C169.846 26.9246 170.357 26.0243 171.047 25.2723C171.731 24.5258 172.588 23.9446 173.617 23.5287C174.64 23.1184 175.848 22.9133 177.228 22.9133C178.579 22.9133 179.746 23.0956 180.735 23.4546C181.723 23.8192 182.54 24.3492 183.184 25.05C183.833 25.7508 184.31 26.6112 184.627 27.6369C184.943 28.6568 185.098 29.8305 185.098 31.1582ZM180.752 31.3234C180.752 30.5883 180.694 29.9103 180.574 29.2949C180.453 28.6739 180.257 28.1383 179.97 27.6824C179.688 27.2266 179.315 26.8677 178.849 26.6112C178.377 26.3548 177.791 26.2295 177.078 26.2295C176.446 26.2295 175.894 26.3434 175.417 26.5713C174.945 26.7992 174.554 27.1354 174.25 27.5741C173.945 28.0129 173.715 28.5428 173.565 29.1581C173.41 29.7792 173.336 30.4801 173.336 31.2721C173.336 32.0072 173.399 32.6852 173.519 33.3005C173.646 33.9217 173.847 34.4572 174.123 34.9131C174.399 35.3689 174.773 35.7222 175.25 35.9728C175.721 36.2236 176.308 36.349 177.009 36.349C177.653 36.349 178.211 36.235 178.688 36.007C179.159 35.7792 179.55 35.4487 179.855 35.0156C180.16 34.5768 180.384 34.0527 180.533 33.4373C180.677 32.8163 180.752 32.1154 180.752 31.3234ZM209.629 38.6737C209.652 38.9529 209.52 39.1466 209.244 39.2606C208.962 39.3688 208.457 39.4257 207.738 39.4257C207.301 39.4257 206.95 39.4201 206.686 39.4087C206.421 39.3973 206.22 39.3688 206.076 39.3232C205.938 39.2834 205.841 39.215 205.789 39.1352C205.737 39.0497 205.708 38.9415 205.697 38.8104L204.806 30.8049C204.777 30.5143 204.743 30.1952 204.714 29.8363C204.691 29.4829 204.662 29.1182 204.633 28.7536C204.605 28.3833 204.582 28.0186 204.559 27.6596C204.536 27.2949 204.507 26.9702 204.472 26.6797L204.49 26.2636C204.409 26.5656 204.323 26.8904 204.231 27.2494C204.133 27.6027 204.03 27.9673 203.921 28.332C203.806 28.7024 203.702 29.0671 203.599 29.4259C203.501 29.7907 203.403 30.1155 203.311 30.406L200.678 38.6565C200.632 38.7934 200.563 38.9073 200.477 39.0099C200.385 39.1067 200.258 39.1865 200.097 39.2492C199.931 39.3118 199.724 39.3574 199.471 39.3859C199.224 39.4144 198.902 39.4257 198.522 39.4257C198.177 39.4257 197.878 39.4144 197.637 39.3859C197.395 39.3574 197.194 39.3118 197.033 39.2492C196.872 39.1865 196.746 39.1067 196.654 39.0099C196.568 38.9073 196.504 38.7876 196.47 38.6395L193.888 30.406C193.802 30.1155 193.704 29.7907 193.595 29.4374C193.486 29.0784 193.382 28.7195 193.273 28.349C193.17 27.9844 193.066 27.6197 192.974 27.255C192.877 26.8961 192.796 26.5656 192.727 26.2636L192.744 26.6797C192.721 26.9702 192.698 27.2949 192.675 27.6596C192.652 28.0186 192.629 28.3833 192.595 28.7536C192.56 29.1182 192.526 29.4829 192.491 29.8363C192.457 30.1952 192.434 30.5143 192.411 30.8049L191.554 38.7079C191.531 38.8503 191.491 38.97 191.434 39.0669C191.382 39.1637 191.273 39.2377 191.117 39.2948C190.956 39.346 190.744 39.3859 190.473 39.403C190.203 39.4201 189.847 39.4257 189.41 39.4257C189.019 39.4257 188.703 39.4144 188.467 39.3916C188.231 39.3688 188.047 39.329 187.915 39.2663C187.789 39.2036 187.702 39.1295 187.662 39.0327C187.628 38.9358 187.61 38.8161 187.622 38.6737L189.105 24.7252C189.163 24.2466 189.318 23.8876 189.577 23.6484C189.835 23.4091 190.226 23.2893 190.755 23.2893H192.894C193.348 23.2893 193.727 23.3236 194.044 23.3919C194.36 23.4546 194.63 23.5742 194.866 23.7394C195.107 23.9047 195.303 24.1326 195.458 24.4233C195.613 24.7138 195.757 25.0785 195.878 25.5115L197.568 30.6225C197.665 30.9587 197.769 31.3063 197.867 31.6653C197.97 32.0299 198.074 32.3889 198.171 32.7535C198.275 33.1125 198.367 33.4658 198.447 33.802C198.534 34.1439 198.608 34.4629 198.677 34.765H198.695C198.764 34.4629 198.838 34.1382 198.93 33.7792C199.022 33.4202 199.114 33.0613 199.206 32.6909C199.304 32.3262 199.402 31.9616 199.511 31.6083C199.614 31.2493 199.718 30.9188 199.821 30.6055L201.5 25.5115C201.609 25.1127 201.736 24.7651 201.868 24.4859C202.006 24.201 202.179 23.9731 202.391 23.7965C202.604 23.6255 202.868 23.5002 203.185 23.4147C203.495 23.3293 203.886 23.2893 204.346 23.2893H206.462C207.002 23.2893 207.405 23.4091 207.669 23.6484C207.928 23.8876 208.083 24.2466 208.129 24.7252L209.629 38.6737Z" fill="white"/>
<path d="M210 43.375H66.5839V47.3634H210V43.375Z" fill="white"/>
</svg>
